<svg xmlns="http://www.w3.org/2000/svg" width="1706.667" height="1649.333">
  <g style="display:inline">
    <g style="display:inline">
      <path d="M-3399.669 3432.376h660.221v660.221h-660.221z" style="display:inline;opacity:1;fill:#0034a4;fill-opacity:1;stroke-width:1.30221" transform="scale(1.40718 .1409) rotate(-45)"/>
      <path d="M-4132.137 2787.787h660.221v660.221h-660.221z" style="display:inline;opacity:1;fill:#0034a4;fill-opacity:1;stroke-width:1.30221" transform="scale(-.1409 -1.40718) rotate(45)"/>
      <path d="M-5058.055 4666.054h398.224v398.224h-398.224z" style="display:inline;opacity:1;fill:#0034a4;fill-opacity:1;stroke-width:.785451" transform="matrix(.63313 -.77404 .77404 -.63313 0 0)"/>
      <path d="M-717.046-654.905h398.224v398.224h-398.224z" style="display:inline;opacity:1;fill:#0034a4;fill-opacity:1;stroke-width:.785451" transform="matrix(-.77404 -.63313 -.63313 -.77404 0 0)"/>
    </g>
    <g aria-label="Вега" style="font-size:612.221px;font-family:Roboto;-inkscape-font-specification:Roboto;display:inline;opacity:1;fill:#0034a4;stroke-width:3.18866">
      <path d="M363.452 1294V859.598h142.572q70.987 0 106.63 29.238 35.942 29.239 35.942 86.522 0 30.432-17.372 54.002-17.372 23.271-47.324 36.1 35.343 9.846 55.71 37.593 20.668 27.448 20.668 65.637 0 58.477-38.04 91.893-38.039 33.415-107.528 33.415zm57.508-203.179v156.337h94.949q40.135 0 63.199-20.586 23.362-20.885 23.362-57.284 0-78.467-85.663-78.467zm0-45.946h86.861q37.74 0 60.204-18.796 22.764-18.796 22.764-51.018 0-35.802-20.967-51.913-20.966-16.41-63.798-16.41H420.96zM871.14 1299.966q-65.894 0-107.228-42.963-41.334-43.26-41.334-115.462v-10.144q0-48.034 18.271-85.627 18.57-37.89 51.518-59.073 33.247-21.482 71.885-21.482 63.199 0 98.243 41.471t35.044 118.744v22.973h-219.55q1.199 47.737 27.856 77.273 26.957 29.239 68.291 29.239 29.353 0 49.72-11.934 20.368-11.934 35.644-31.625l33.845 26.255q-40.734 62.355-122.204 62.355zm-6.888-289.401q-33.547 0-56.31 24.465-22.764 24.166-28.155 68.024h162.34v-4.177q-2.396-42.068-22.763-65.04-20.368-23.272-55.112-23.272zM1271.002 1016.83H1121.54V1294h-55.711V971.181h205.172zM1519.005 1294q-4.792-9.548-7.787-34.013-38.638 39.98-92.253 39.98-47.923 0-78.774-26.853-30.551-27.15-30.551-68.62 0-50.422 38.339-78.169 38.638-28.045 108.426-28.045h53.914v-25.36q0-28.94-17.372-45.946-17.372-17.304-51.218-17.304-29.653 0-49.72 14.917-20.069 14.918-20.069 36.1h-55.71q0-24.166 17.072-46.542 17.372-22.675 46.725-35.802 29.653-13.128 64.997-13.128 56.01 0 87.76 28.045 31.749 27.747 32.947 76.677v148.58q0 44.453 11.382 70.708V1294zm-91.953-42.069q26.059 0 49.421-13.425 23.363-13.426 33.846-34.908v-66.234h-43.43q-101.838 0-101.838 59.372 0 25.957 17.373 40.576 17.372 14.62 44.628 14.62z"/>
    </g>
    <path d="M906.162 99.582a764.731 764.731 0 0 0-138.6 14.26v24.94a741.614 741.614 0 0 1 140.399-15.132 741.614 741.614 0 0 1 741.613 741.616 741.614 741.614 0 0 1-69.576 312.761h23.27a764.731 764.731 0 0 0 67.627-313.713A764.731 764.731 0 0 0 906.162 99.582Zm-297.135 61.443A764.731 764.731 0 0 0 175.56 640.42h26.761a741.614 741.614 0 0 1 406.707-453.162Zm158.535 102.11v12.23a412.96 412.96 0 0 1 331.76 365.055h14.594a426.253 426.253 0 0 0-346.353-377.285Zm-158.535 1.12A426.253 426.253 0 0 0 267.324 640.42h13.082a412.96 412.96 0 0 1 328.621-364.215ZM156.74 720.89a764.731 764.731 0 0 0-15.308 143.425 764.731 764.731 0 0 0 764.73 764.73 764.731 764.731 0 0 0 605.19-300.33h-26.295A741.614 741.614 0 0 1 907.96 1606.88a741.614 741.614 0 0 1-741.615-741.613 741.614 741.614 0 0 1 15.996-144.377Zm110.317 0a426.253 426.253 0 0 0 60.982 184.8h17.33a412.96 412.96 0 0 1-64.926-184.8Zm833.582 0A412.96 412.96 0 0 1 976.2 977.834h20.596a426.253 426.253 0 0 0 117.41-256.945Z" style="display:inline;opacity:1;fill:#0034a4;fill-opacity:1;stroke-width:1.70018"/>
  </g>
</svg>
