<svg width="300" height="142" viewBox="0 0 300 142" fill="none" xmlns="http://www.w3.org/2000/svg">
<g clip-path="url(#clip0_30_2)">
<path d="M78.45 81.02C95.18 80.85 111.91 80.68 128.65 80.51C128.53 75.39 128.4 70.28 128.28 65.16L79.39 65.21C79.08 70.48 78.76 75.75 78.45 81.02Z" fill="#5D80B5" stroke="#5D80B5" stroke-miterlimit="10"/>
<path d="M241.24 135.77C232.84 138.77 216.25 143.71 196.65 143.71C174.68 143.71 156.58 138.13 142.37 124.62C129.88 112.61 122.12 93.3 122.12 70.78C122.22 50.44 128.89 32.68 141.01 19.59C160.85 -1.83 200.73 -3.87 200.74 -3.87C200.6 1.35 200.45 6.57 200.31 11.79C196.7 12.84 171.11 13.91 157.44 27.7C147.54 37.69 141.94 52.06 141.94 69.92C141.94 106.6 164.13 128.27 197.94 128.27C210.22 128.27 218.62 126.55 222.93 124.41V81.29C210.45 81.51 197.98 81.74 185.5 81.96C187.42 76.86 189.35 71.77 191.27 66.67C207.93 66.54 224.58 66.41 241.24 66.28V135.77V135.77Z" fill="#5D80B5" stroke="#5D80B5" stroke-miterlimit="10"/>
<path d="M247.93 -1.97H215.58V13.89H247.93V-1.97Z" fill="#5D80B5" stroke="#5D80B5" stroke-miterlimit="10"/>
<path d="M233 3.5C249.08 49.04 265.17 94.58 281.25 140.12C286.82 140.01 292.38 139.89 297.95 139.78L247.96 -1.78L233 3.5Z" fill="#5D80B5" stroke="#5D80B5" stroke-miterlimit="10"/>
<path d="M230.52 3.5C221.58 29.43 212.64 55.35 203.69 81.28C197.79 81.04 191.89 80.8 185.99 80.56C195.85 53.11 205.7 25.67 215.56 -1.78L230.52 3.5Z" fill="#5D80B5" stroke="#5D80B5" stroke-miterlimit="10"/>
<path d="M120.7 125H44.6V140.86H120.7V125Z" fill="#5D80B5" stroke="#5D80B5" stroke-miterlimit="10"/>
<path d="M135.54 12.09C125.75 12.18 115.96 12.26 106.17 12.35C103.77 19.81 100 31.48 95.28 45.8C88.38 66.76 85.07 76.27 79.11 94.31C75.55 105.07 70.33 121.03 64.02 140.79C60.49 140.76 56.93 140.76 53.32 140.78C50.06 140.8 46.84 140.83 43.64 140.88C30.2 93.57 16.74 46.28 3.28998 -1.02C8.47998 -1.08 13.67 -1.14 18.86 -1.2C30.37 39.8 41.88 80.8 53.39 121.81C66.86 81.13 80.32 40.44 93.79 -0.239998C107.79 -0.299998 121.8 -0.37 135.8 -0.43C135.71 3.74 135.63 7.91 135.54 12.09Z" fill="#5D80B5" stroke="#5D80B5" stroke-miterlimit="10"/>
<path d="M146.23 12.21C132.9 12.29 119.56 12.38 106.23 12.46C107.9 8.18 109.57 3.91 111.24 -0.370003C122.9 -0.370003 134.57 -0.370003 146.23 -0.370003V12.21Z" fill="#5D80B5" stroke="#5D80B5" stroke-miterlimit="10"/>
</g>
<defs>
<clipPath id="clip0_30_2">
<rect width="300" height="142" fill="white"/>
</clipPath>
</defs>
</svg>
