<svg xmlns="http://www.w3.org/2000/svg" width="1638.35" height="1605.256">
  <g style="display:inline;fill:#fff">
    <g style="display:inline;fill:#fff">
      <path d="M-3399.669 3432.376h660.221v660.221h-660.221z" style="display:inline;opacity:1;fill:#fff;fill-opacity:1;stroke-width:1.30221" transform="scale(1.40718 .1409) rotate(-45 -215.354 -56.495)"/>
      <path d="M-4132.137 2787.787h660.221v660.221h-660.221z" style="display:inline;opacity:1;fill:#fff;fill-opacity:1;stroke-width:1.30221" transform="scale(-.1409 -1.40718) rotate(45 95.077 287.254)"/>
      <path d="M-5058.055 4666.054h398.224v398.224h-398.224z" style="display:inline;opacity:1;fill:#fff;fill-opacity:1;stroke-width:.785451" transform="matrix(.63313 -.77404 .77404 -.63313 -32.545 -23.789)"/>
      <path d="M-717.046-654.905h398.224v398.224h-398.224z" style="display:inline;opacity:1;fill:#fff;fill-opacity:1;stroke-width:.785451" transform="matrix(-.77404 -.63313 -.63313 -.77404 -32.545 -23.789)"/>
    </g>
    <g aria-label="Вега" style="font-size:612.221px;font-family:Roboto;-inkscape-font-specification:Roboto;display:inline;opacity:1;fill:#fff;stroke-width:3.18866">
      <path d="M362.742 1296.533V861.282h142.294q70.847 0 106.42 29.295 35.873 29.296 35.873 86.692 0 30.491-17.338 54.107-17.338 23.317-47.232 36.172 35.274 9.864 55.602 37.665 20.627 27.503 20.627 65.766 0 58.592-37.965 92.073-37.965 33.48-107.318 33.48zm57.396-203.576V1249.6H514.9q40.058 0 63.076-20.627 23.317-20.926 23.317-57.396 0-78.62-85.496-78.62zm0-46.036h86.691q37.666 0 60.086-18.833 22.72-18.833 22.72-51.118 0-35.872-20.926-52.015-20.926-16.442-63.673-16.442h-84.898zM869.439 1302.511q-65.766 0-107.02-43.047-41.253-43.345-41.253-115.688v-10.164q0-48.128 18.235-85.794 18.534-37.965 51.417-59.19 33.182-21.523 71.745-21.523 63.076 0 98.051 41.552 34.976 41.552 34.976 118.977v23.018H776.47q1.195 47.83 27.8 77.424 26.905 29.296 68.158 29.296 29.296 0 49.623-11.958 20.328-11.957 35.574-31.687l33.78 26.307q-40.656 62.477-121.966 62.477zm-6.876-289.968q-33.48 0-56.2 24.513-22.72 24.214-28.1 68.157h162.023v-4.185q-2.391-42.15-22.719-65.168-20.327-23.317-55.004-23.317zM1268.518 1018.82H1119.35v277.712h-55.602V973.085h204.771zM1516.037 1296.533q-4.783-9.566-7.772-34.08-38.563 40.058-92.072 40.058-47.83 0-78.62-26.904-30.492-27.203-30.492-68.755 0-50.52 38.264-78.322 38.562-28.1 108.215-28.1h53.808v-25.41q0-28.996-17.338-46.035-17.339-17.339-51.118-17.339-29.595 0-49.624 14.947-20.028 14.947-20.028 36.171h-55.602q0-24.213 17.039-46.633 17.338-22.72 46.634-35.873 29.595-13.153 64.87-13.153 55.9 0 87.587 28.1 31.687 27.801 32.883 76.826v148.87q0 44.542 11.36 70.849v4.783zm-91.773-42.15q26.007 0 49.324-13.453 23.317-13.452 33.78-34.975v-66.364h-43.346q-101.638 0-101.638 59.488 0 26.008 17.338 40.656 17.339 14.647 44.542 14.647z" style="fill:#fff" transform="matrix(1.00196 0 0 .99805 -32.545 -23.789)"/>
    </g>
    <path d="M906.162 99.582a764.731 764.731 0 0 0-138.6 14.26v24.94a741.614 741.614 0 0 1 140.399-15.132 741.614 741.614 0 0 1 741.613 741.616 741.614 741.614 0 0 1-69.576 312.761h23.27a764.731 764.731 0 0 0 67.627-313.713A764.731 764.731 0 0 0 906.162 99.582Zm-297.135 61.443A764.731 764.731 0 0 0 175.56 640.42h26.761a741.614 741.614 0 0 1 406.707-453.162Zm158.535 102.11v12.23a412.96 412.96 0 0 1 331.76 365.055h14.594a426.253 426.253 0 0 0-346.353-377.285Zm-158.535 1.12A426.253 426.253 0 0 0 267.324 640.42h13.082a412.96 412.96 0 0 1 328.621-364.215ZM156.74 720.89a764.731 764.731 0 0 0-15.308 143.425 764.731 764.731 0 0 0 764.73 764.73 764.731 764.731 0 0 0 605.19-300.33h-26.295A741.614 741.614 0 0 1 907.96 1606.88a741.614 741.614 0 0 1-741.615-741.613 741.614 741.614 0 0 1 15.996-144.377Zm110.317 0a426.253 426.253 0 0 0 60.982 184.8h17.33a412.96 412.96 0 0 1-64.926-184.8Zm833.582 0A412.96 412.96 0 0 1 976.2 977.834h20.596a426.253 426.253 0 0 0 117.41-256.945Z" style="display:inline;opacity:1;fill:#fff;fill-opacity:1;stroke-width:1.70018" transform="translate(-32.545 -23.789)"/>
  </g>
</svg>
